<?xml version="1.0" encoding="UTF-8"?>
<svg version="1.1" xmlns="http://www.w3.org/2000/svg" width="600" height="600">
<path d="M0 0 C198 0 396 0 600 0 C600 198 600 396 600 600 C402 600 204 600 0 600 C0 402 0 204 0 0 Z " fill="#FEFEFE" transform="translate(0,0)"/>
<path d="M0 0 C2.43703258 -0.00300043 4.87406469 -0.00640496 7.31109619 -0.01017761 C13.18976528 -0.01802564 19.06842219 -0.02122817 24.94709627 -0.02178999 C29.73519621 -0.02226933 34.52329291 -0.02434459 39.31139183 -0.02749062 C52.95546608 -0.03627006 66.59953255 -0.04091396 80.24360964 -0.04016014 C80.9751667 -0.04012019 81.70672376 -0.04008023 82.46044922 -0.04003906 C83.19292254 -0.03999818 83.92539587 -0.0399573 84.68006536 -0.03991518 C96.54477273 -0.0395089 108.40944834 -0.049081 120.27414653 -0.06317743 C132.52426392 -0.07761441 144.77436588 -0.0844437 157.02449197 -0.08358365 C163.8750027 -0.08325432 170.72548009 -0.08588424 177.57598305 -0.0967617 C184.02355272 -0.10653806 190.47105255 -0.10645745 196.91862488 -0.09924507 C199.26450898 -0.09821112 201.61039767 -0.10048992 203.95627403 -0.10660553 C270.84200986 -0.26947917 270.84200986 -0.26947917 293.4284668 21.53198242 C301.55843818 30.1642935 306.5403177 39.29819727 306.1940918 51.43432617 C305.33210807 61.24115742 301.71819956 69.8741137 297.2409668 78.52416992 C295.56672902 81.7623411 294.2765317 84.98191784 293.0769043 88.42260742 C290.93070346 93.87402809 288.93945462 98.7701878 283.95581055 102.14526367 C273.92292585 104.77080823 263.2006078 103.94960339 252.95581055 103.14526367 C253.49560547 103.60562012 254.03540039 104.06597656 254.59155273 104.5402832 C255.30472656 105.15500488 256.01790039 105.76972656 256.75268555 106.40307617 C257.45748047 107.00780762 258.16227539 107.61253906 258.88842773 108.2355957 C265.69913776 114.52673573 271.02098158 122.87202422 271.41674805 132.30151367 C271.40890019 134.08297671 271.38006119 135.86446427 271.33081055 137.64526367 C271.32887695 138.97364258 271.32887695 138.97364258 271.3269043 140.32885742 C270.97545674 166.92172221 253.46032757 190.60026837 235.95581055 209.14526367 C234.91166992 210.28608398 234.91166992 210.28608398 233.84643555 211.44995117 C209.44390117 237.18839072 171.9346547 245.65627848 137.86238956 247.94514942 C135.87632231 248.08188761 133.89112537 248.23173362 131.90688992 248.39288616 C118.43674351 249.39016639 104.96631307 249.30870035 91.46582031 249.32226562 C88.70602698 249.32802263 85.94623756 249.33517828 83.18644714 249.34217834 C74.95118059 249.36178233 66.7159131 249.37198483 58.48062912 249.38090613 C55.36748143 249.3844267 52.25433473 249.38857157 49.14118787 249.3927458 C35.37746447 249.41119323 21.613741 249.42693849 7.85000706 249.43464375 C4.49473126 249.436553 1.13945546 249.43847344 -2.21582031 249.44042969 C-3.46641353 249.4411553 -3.46641353 249.4411553 -4.74227125 249.44189557 C-18.23298124 249.45018727 -31.72360234 249.47551953 -45.21427356 249.50801037 C-59.12196516 249.54122793 -73.02961176 249.55910538 -86.93734318 249.56228799 C-94.72306518 249.56443871 -102.50865723 249.57297473 -110.29434013 249.59874916 C-116.92663222 249.62065772 -123.5587627 249.6284089 -130.19108688 249.61878238 C-133.56251432 249.61429601 -136.9333444 249.61805477 -140.30476761 249.63554382 C-167.63556572 249.76924129 -202.21526841 248.77488355 -223.5559082 228.86401367 C-231.54534106 219.63737205 -234.79518998 209.44135174 -234.5168457 197.37573242 C-233.36826471 183.84551225 -227.307009 171.37824391 -220.04418945 160.14526367 C-219.67938477 159.57598145 -219.31458008 159.00669922 -218.9387207 158.42016602 C-212.85565354 148.95672776 -212.85565354 148.95672776 -210.04418945 146.14526367 C-207.4683956 145.89996786 -204.99189939 145.77184574 -202.41137695 145.73120117 C-201.2836235 145.70215195 -201.2836235 145.70215195 -200.13308716 145.67251587 C-197.72857047 145.6126722 -195.32400602 145.56631641 -192.91918945 145.52026367 C-191.29026217 145.48208822 -189.66135517 145.44303674 -188.0324707 145.40307617 C-184.0365414 145.30696701 -180.04051759 145.22295426 -176.04418945 145.14526367 C-176.44468506 144.71608643 -176.84518066 144.28690918 -177.2578125 143.84472656 C-180.7486054 139.96659693 -183.06716619 136.55632165 -184.85668945 131.58276367 C-185.25500977 130.50897461 -185.65333008 129.43518555 -186.0637207 128.32885742 C-189.86630237 115.98182931 -188.95739147 102.3109038 -185.04418945 90.14526367 C-184.70387695 88.97608398 -184.36356445 87.8069043 -184.01293945 86.60229492 C-179.58588429 72.16949685 -172.65619158 59.81813057 -163.04418945 48.14526367 C-162.28493164 47.22100586 -161.52567383 46.29674805 -160.7434082 45.34448242 C-134.25680282 14.69631548 -94.99617761 4.76048897 -56.16870117 1.79077148 C-37.44114257 0.46741722 -18.77068936 -0.00467984 0 0 Z " fill="#FDFDFD" transform="translate(264.044189453125,174.854736328125)"/>
<path d="M0 0 C3.50543106 0.00520208 7.01085375 0.00033108 10.51628542 -0.00277233 C16.38702239 -0.00636906 22.25770836 -0.0017249 28.12843752 0.00790882 C34.85134504 0.01881568 41.57413138 0.01523409 48.29703605 0.00425601 C54.14840137 -0.00490463 59.99973085 -0.00606075 65.85110104 -0.00086665 C69.31162264 0.00220155 72.77208781 0.00280824 76.23260546 -0.00393963 C88.6967736 -0.02061519 101.11353292 -0.00406454 113.53371096 1.14462757 C114.3530883 1.21997604 115.17246565 1.29532452 116.01667261 1.37295628 C128.01222382 2.65118647 140.00387038 6.38793816 148.57814455 15.19443226 C153.54818123 21.48751111 153.60493474 27.51689895 152.70314455 35.26865101 C151.25080491 44.46680206 147.6811529 51.64963291 143.70314455 60.26865101 C120.27314455 60.26865101 96.84314455 60.26865101 72.70314455 60.26865101 C73.03314455 56.63865101 73.36314455 53.00865101 73.70314455 49.26865101 C70.72216144 45.56500533 67.20645475 44.4967879 62.70314455 43.26865101 C59.60671696 42.98812921 56.52668691 42.99515822 53.419209 43.00986195 C52.50275606 43.00635731 51.58630312 43.00285267 50.64207888 42.99924183 C47.61678363 42.99045366 44.59172339 42.9962698 41.5664258 43.00302601 C39.44575376 43.00167702 37.32508202 42.99973455 35.20441103 42.99722767 C30.75335679 42.99427908 26.30238281 42.99856002 21.85133791 43.00790882 C16.19897768 43.01921273 10.54680932 43.0128002 4.89445639 43.00076389 C0.50756873 42.99346044 -3.87927517 42.99587321 -8.2661643 43.00101948 C-10.34656692 43.0023374 -12.42697374 43.00077483 -14.50737143 42.99606037 C-24.68083728 42.97808839 -34.76221521 43.1315447 -44.88987303 44.16806507 C-46.04990984 44.28580091 -46.04990984 44.28580091 -47.23338175 44.40591526 C-56.16336372 45.43313349 -63.29287688 48.43626308 -69.10935545 55.45615101 C-70.79394583 59.44597034 -71.11892399 63.0066646 -70.29685545 67.26865101 C-66.74464497 71.73756097 -61.70932191 72.45317177 -56.29685545 73.26865101 C-51.71705448 73.56933119 -47.14599764 73.59684495 -42.5573535 73.61581898 C-41.18947102 73.62845627 -39.82159658 73.6419907 -38.45373106 73.65634632 C-35.52209445 73.68552322 -32.59048779 73.70903893 -29.65876913 73.72824192 C-25.00232535 73.75941467 -20.34614263 73.80732 -15.68987608 73.85803699 C-2.45348825 73.99970553 10.78305062 74.11939184 24.01979494 74.22226429 C31.3416166 74.2793153 38.66317943 74.35031603 45.98472804 74.43557179 C49.84509615 74.4798456 53.70522999 74.5170835 57.56580973 74.53646946 C105.13138889 74.78464069 105.13138889 74.78464069 121.20314455 86.58115101 C126.12893998 91.87638109 127.94001716 96.22628156 128.14064455 103.51865101 C127.34166889 125.26576965 114.90177916 147.3827929 100.70314455 163.26865101 C99.87750002 164.23544788 99.87750002 164.23544788 99.0351758 165.22177601 C85.61124364 179.93838312 65.60141265 185.25384563 46.70314455 188.26865101 C45.39458498 188.47917103 45.39458498 188.47917103 44.05958986 188.69394398 C10.05187775 193.99165913 -24.25112479 193.58888604 -58.56736326 193.5293932 C-65.22153098 193.51797743 -71.87545532 193.52459787 -78.52961683 193.53653812 C-83.7480188 193.54384759 -88.96638405 193.54142807 -94.18478727 193.53628254 C-96.63537444 193.53497223 -99.08596522 193.53649879 -101.53654814 193.54124165 C-114.3719675 193.56065662 -127.12702847 193.28929734 -139.93259764 192.3653307 C-141.03793978 192.28631645 -142.14328192 192.20730221 -143.28211927 192.12589359 C-156.24130695 191.09639054 -170.04942391 189.46277221 -179.17185545 179.26865101 C-183.37607627 173.33328044 -184.17597935 168.43900531 -183.29685545 161.26865101 C-180.72930833 150.36803801 -176.39510162 141.46514335 -171.29685545 131.26865101 C-147.86685545 131.26865101 -124.43685545 131.26865101 -100.29685545 131.26865101 C-100.62685545 132.58865101 -100.95685545 133.90865101 -101.29685545 135.26865101 C-102.09310098 141.94529806 -102.09310098 141.94529806 -99.35935545 147.76865101 C-92.5068802 151.12496542 -85.34730921 151.56416825 -77.8241992 151.52744007 C-76.92360273 151.53094471 -76.02300627 151.53444935 -75.095119 151.53806019 C-72.14145077 151.54680318 -69.18802579 151.54105069 -66.23435545 151.53427601 C-64.15802035 151.53562573 -62.08168557 151.53756882 -60.00535154 151.54007435 C-55.65799014 151.54301638 -51.31071114 151.53876111 -46.96335936 151.5293932 C-41.43756032 151.51805636 -35.91195685 151.52452732 -30.38616514 151.53653812 C-26.09629981 151.54383054 -21.80647935 151.54143429 -17.51661253 151.53628254 C-15.48200535 151.53496337 -13.44739388 151.53653178 -11.41279173 151.54124165 C16.18578348 152.51424907 16.18578348 152.51424907 40.70314455 142.26865101 C44.89842017 136.53434765 47.75503571 131.58680805 46.70314455 124.26865101 C43.95492994 120.97079348 39.79517064 120.11849998 35.70314455 119.26865101 C32.57668392 118.98457722 29.46635899 118.96784672 26.32838869 118.96567249 C25.41316439 118.95723316 24.49794008 118.94879383 23.55498171 118.94009876 C20.53274901 118.91435632 17.51061507 118.90216526 14.4883008 118.88974476 C12.35535369 118.87353088 10.22241376 118.85634697 8.08948183 118.83824635 C2.45805206 118.79256226 -3.17338857 118.7578187 -8.80491209 118.72604847 C-18.79059102 118.66811205 -28.77615915 118.59269128 -38.7616992 118.51474476 C-39.83503571 118.50656223 -40.90837221 118.49837971 -42.01423407 118.48994923 C-55.2039571 118.38617268 -68.38659146 118.21838361 -81.57029295 117.79599476 C-82.77729353 117.75735813 -83.98429411 117.7187215 -85.22787046 117.67891407 C-135.50070952 115.89883192 -135.50070952 115.89883192 -146.36716795 105.23740101 C-153.01163038 97.81281951 -153.09083167 91.3865442 -152.56199217 81.69052601 C-151.84202809 75.11405858 -149.08876263 69.197271 -146.29685545 63.26865101 C-145.98119627 62.58496449 -145.66553709 61.90127796 -145.34031248 61.19687366 C-134.51082535 37.96299648 -120.10393606 19.37174073 -95.29685545 10.26865101 C-64.98066543 0.07514558 -31.61729078 -0.06201525 0 0 Z " fill="#112D56" transform="translate(320.2968554496765,203.73134899139404)"/>
<path d="M0 0 C2.43703258 -0.00300043 4.87406469 -0.00640496 7.31109619 -0.01017761 C13.18976528 -0.01802564 19.06842219 -0.02122817 24.94709627 -0.02178999 C29.73519621 -0.02226933 34.52329291 -0.02434459 39.31139183 -0.02749062 C52.95546608 -0.03627006 66.59953255 -0.04091396 80.24360964 -0.04016014 C80.9751667 -0.04012019 81.70672376 -0.04008023 82.46044922 -0.04003906 C83.19292254 -0.03999818 83.92539587 -0.0399573 84.68006536 -0.03991518 C96.54477273 -0.0395089 108.40944834 -0.049081 120.27414653 -0.06317743 C132.52426392 -0.07761441 144.77436588 -0.0844437 157.02449197 -0.08358365 C163.8750027 -0.08325432 170.72548009 -0.08588424 177.57598305 -0.0967617 C184.02355272 -0.10653806 190.47105255 -0.10645745 196.91862488 -0.09924507 C199.26450898 -0.09821112 201.61039767 -0.10048992 203.95627403 -0.10660553 C270.84200986 -0.26947917 270.84200986 -0.26947917 293.4284668 21.53198242 C301.55843818 30.1642935 306.5403177 39.29819727 306.1940918 51.43432617 C305.33210807 61.24115742 301.71819956 69.8741137 297.2409668 78.52416992 C295.56672902 81.7623411 294.2765317 84.98191784 293.0769043 88.42260742 C290.93070346 93.87402809 288.93945462 98.7701878 283.95581055 102.14526367 C273.92292585 104.77080823 263.2006078 103.94960339 252.95581055 103.14526367 C253.49560547 103.60562012 254.03540039 104.06597656 254.59155273 104.5402832 C255.30472656 105.15500488 256.01790039 105.76972656 256.75268555 106.40307617 C257.45748047 107.00780762 258.16227539 107.61253906 258.88842773 108.2355957 C265.69913776 114.52673573 271.02098158 122.87202422 271.41674805 132.30151367 C271.40890019 134.08297671 271.38006119 135.86446427 271.33081055 137.64526367 C271.32887695 138.97364258 271.32887695 138.97364258 271.3269043 140.32885742 C270.97545674 166.92172221 253.46032757 190.60026837 235.95581055 209.14526367 C234.91166992 210.28608398 234.91166992 210.28608398 233.84643555 211.44995117 C209.44390117 237.18839072 171.9346547 245.65627848 137.86238956 247.94514942 C135.87632231 248.08188761 133.89112537 248.23173362 131.90688992 248.39288616 C118.43674351 249.39016639 104.96631307 249.30870035 91.46582031 249.32226562 C88.70602698 249.32802263 85.94623756 249.33517828 83.18644714 249.34217834 C74.95118059 249.36178233 66.7159131 249.37198483 58.48062912 249.38090613 C55.36748143 249.3844267 52.25433473 249.38857157 49.14118787 249.3927458 C35.37746447 249.41119323 21.613741 249.42693849 7.85000706 249.43464375 C4.49473126 249.436553 1.13945546 249.43847344 -2.21582031 249.44042969 C-3.46641353 249.4411553 -3.46641353 249.4411553 -4.74227125 249.44189557 C-18.23298124 249.45018727 -31.72360234 249.47551953 -45.21427356 249.50801037 C-59.12196516 249.54122793 -73.02961176 249.55910538 -86.93734318 249.56228799 C-94.72306518 249.56443871 -102.50865723 249.57297473 -110.29434013 249.59874916 C-116.92663222 249.62065772 -123.5587627 249.6284089 -130.19108688 249.61878238 C-133.56251432 249.61429601 -136.9333444 249.61805477 -140.30476761 249.63554382 C-167.63556572 249.76924129 -202.21526841 248.77488355 -223.5559082 228.86401367 C-231.54534106 219.63737205 -234.79518998 209.44135174 -234.5168457 197.37573242 C-233.36826471 183.84551225 -227.307009 171.37824391 -220.04418945 160.14526367 C-219.67938477 159.57598145 -219.31458008 159.00669922 -218.9387207 158.42016602 C-212.85565354 148.95672776 -212.85565354 148.95672776 -210.04418945 146.14526367 C-207.4683956 145.89996786 -204.99189939 145.77184574 -202.41137695 145.73120117 C-201.2836235 145.70215195 -201.2836235 145.70215195 -200.13308716 145.67251587 C-197.72857047 145.6126722 -195.32400602 145.56631641 -192.91918945 145.52026367 C-191.29026217 145.48208822 -189.66135517 145.44303674 -188.0324707 145.40307617 C-184.0365414 145.30696701 -180.04051759 145.22295426 -176.04418945 145.14526367 C-176.44468506 144.71608643 -176.84518066 144.28690918 -177.2578125 143.84472656 C-180.7486054 139.96659693 -183.06716619 136.55632165 -184.85668945 131.58276367 C-185.25500977 130.50897461 -185.65333008 129.43518555 -186.0637207 128.32885742 C-189.86630237 115.98182931 -188.95739147 102.3109038 -185.04418945 90.14526367 C-184.70387695 88.97608398 -184.36356445 87.8069043 -184.01293945 86.60229492 C-179.58588429 72.16949685 -172.65619158 59.81813057 -163.04418945 48.14526367 C-162.28493164 47.22100586 -161.52567383 46.29674805 -160.7434082 45.34448242 C-134.25680282 14.69631548 -94.99617761 4.76048897 -56.16870117 1.79077148 C-37.44114257 0.46741722 -18.77068936 -0.00467984 0 0 Z M-55.04418945 14.14526367 C-56.14504883 14.28834961 -57.2459082 14.43143555 -58.38012695 14.57885742 C-84.01055561 18.01857053 -106.37794019 30.95152475 -122.45043945 51.17260742 C-130.89488025 62.9621172 -138.95387125 76.16259983 -143.04418945 90.14526367 C-143.39868164 91.21776367 -143.75317383 92.29026367 -144.1184082 93.39526367 C-145.17800841 97.68731514 -145.38931322 101.55821573 -145.35668945 105.95776367 C-145.3510498 106.75311523 -145.34541016 107.5484668 -145.33959961 108.36791992 C-145.07406434 121.23980768 -139.88207616 130.94230747 -131.6340332 140.67260742 C-129.62825782 142.53053695 -127.39698137 143.76536425 -125.04418945 145.14526367 C-126.19306641 145.06034668 -127.34194336 144.97542969 -128.52563477 144.88793945 C-148.97638591 142.72691237 -148.97638591 142.72691237 -168.01977539 148.0456543 C-172.44868153 153.00166691 -174.48973525 158.82661328 -176.22680664 165.16381836 C-176.99943915 167.98203469 -177.94778322 170.62498603 -179.02075195 173.34057617 C-183.71536476 185.67212163 -185.61242162 198.72220024 -180.04418945 211.14526367 C-174.19961003 222.32864161 -165.28407579 229.2165497 -153.41918945 232.97729492 C-136.07656466 237.9780802 -118.84370647 238.29394181 -100.94335938 238.2746582 C-98.82129893 238.27601527 -96.69923872 238.27779692 -94.57717896 238.27996826 C-88.83891904 238.28450927 -83.1006772 238.28276595 -77.36241698 238.27958918 C-71.32871311 238.27704469 -65.2950107 238.27940925 -59.26130676 238.28097534 C-49.11935145 238.28279249 -38.97740342 238.28040426 -28.83544922 238.27563477 C-17.16475753 238.27020918 -5.49408335 238.27194422 6.17660791 238.27746117 C16.23827411 238.28202463 26.2999351 238.28262664 36.36160201 238.2800225 C42.35203601 238.27847534 48.34246183 238.27822229 54.33289528 238.28155899 C59.97925112 238.28448437 65.62558483 238.28237791 71.27193832 238.27666473 C73.32474799 238.27536112 75.37755957 238.27568944 77.43036842 238.2779274 C88.08574268 238.28845701 98.71710108 238.14528016 109.36405945 237.69845581 C110.30731954 237.65955644 111.25057964 237.62065706 112.22242337 237.58057892 C119.86838257 237.2273329 127.29711744 236.34662965 134.83081055 234.95776367 C136.66893311 234.62675659 136.66893311 234.62675659 138.54418945 234.2890625 C157.92688315 230.62293222 176.15369057 223.54954433 190.95581055 210.14526367 C192.14883789 209.09145508 192.14883789 209.09145508 193.3659668 208.01635742 C210.0444142 192.39518085 229.02796489 164.37542111 230.29174805 140.84838867 C230.58664756 126.42555889 228.01073193 115.14993122 217.95581055 104.14526367 C216.96581055 103.81526367 215.97581055 103.48526367 214.95581055 103.14526367 C214.95581055 102.48526367 214.95581055 101.82526367 214.95581055 101.14526367 C223.20581055 101.14526367 231.45581055 101.14526367 239.95581055 101.14526367 C241.88373335 97.64768179 243.80640924 94.14784727 245.7175293 90.64111328 C246.68223901 88.87589469 247.65486668 87.11501065 248.62768555 85.35424805 C255.11165032 73.43320865 261.83399461 60.15096231 258.2019043 46.26245117 C253.80822224 33.61553889 245.35682746 24.43289154 233.33081055 18.58276367 C217.26474915 11.28619705 200.26558221 10.55759606 182.88671875 10.67529297 C180.75687045 10.6747826 178.62702198 10.67251686 176.49717712 10.6686554 C170.77359518 10.66328956 165.05034366 10.68250804 159.32682061 10.70675635 C153.29277667 10.72826468 147.25873132 10.72746662 141.22465515 10.72944641 C131.09177069 10.73587093 120.95900794 10.75702229 110.82617188 10.78857422 C97.89282848 10.82879819 84.95956434 10.84626238 72.02616596 10.8558836 C60.82027872 10.86424368 49.61440762 10.88145652 38.40853477 10.90092111 C36.02449964 10.90494691 33.64046402 10.90868984 31.256428 10.91214347 C-12.03108501 10.26425004 -12.03108501 10.26425004 -55.04418945 14.14526367 Z " fill="#BEBFC2" transform="translate(264.044189453125,174.854736328125)"/>
</svg>
